# xmcd
#
# Track frame offsets: 
#        150
#        14432
#        36140
#        61193
#        76690
#        93321
#        112337
#        130849
#        150274
#        166008
#        184126
#        199655
#        238365
#        259568
#        289059
#
# Disc length: 4162 seconds
#
# Revision: 0
# Processed by: cddbd v1.5.2PL0 Copyright (c) Steve Scherf et al.
# Submitted via: ExactAudioCopy v0.95b4
#
DISCID=bf10400f
DTITLE=Various Artist - Play The Music
DYEAR=2007
DGENRE=Funk
TTITLE0=Wild Cherry - Play That Funky Music
TTITLE1=Earth, Wind and Fire - Boogie Wonderland
TTITLE2=A Taste Of Honey - Boogie Oogie Oogie
TTITLE3=Rick James - Superfreak
TTITLE4=Dan Hartman - Relight My Fire
TTITLE5=Quincy Jones - Ai No Corrida
TTITLE6=Kayah - Get Down On It
TTITLE7=Pointer Sisters - Dare Me
TTITLE8=Locksmith - Far Beyond
TTITLE9=Telex - Moscow Diskow
TTITLE10=Tom Browne - Funkin' For Jamaica
TTITLE11=Supermax - Love Machine
TTITLE12=Chaka Khan with Rufus - Ain't Nobody
TTITLE13=Marvin Gaye - Sexual Healing
TTITLE14=BONUS
EXTD=
EXTT0=
EXTT1=
EXTT2=
EXTT3=
EXTT4=
EXTT5=
EXTT6=
EXTT7=
EXTT8=
EXTT9=
EXTT10=
EXTT11=
EXTT12=
EXTT13=
EXTT14=
PLAYORDER=
